<?xml version="1.0" standalone="no"?>
<!DOCTYPE svg PUBLIC "-//W3C//DTD SVG 20010904//EN"
 "http://www.w3.org/TR/2001/REC-SVG-20010904/DTD/svg10.dtd">
<svg version="1.0" xmlns="http://www.w3.org/2000/svg"
 width="740.000000pt" height="740.000000pt" viewBox="0 0 740.000000 740.000000"
 preserveAspectRatio="xMidYMid meet">

<g transform="translate(0.000000,740.000000) scale(0.100000,-0.100000)"
fill="#000000" stroke="none">
<path d="M4028 6614 c-155 -37 -247 -128 -293 -289 -24 -85 -71 -168 -113
-202 -21 -17 -74 -51 -120 -77 -159 -92 -214 -178 -215 -332 -1 -72 3 -88 35
-156 50 -105 53 -125 28 -194 -53 -148 3 -292 130 -333 21 -7 90 -10 170 -9
131 3 136 2 181 -24 25 -15 74 -57 108 -93 l61 -66 15 35 c20 48 19 59 -10 86
-79 74 -138 203 -179 391 -4 20 -12 27 -31 27 -35 0 -55 19 -55 53 0 20 -8 34
-26 45 -37 25 -66 87 -62 137 2 34 9 45 37 64 22 15 49 23 77 23 33 0 70 14
162 63 166 86 184 103 233 217 47 110 75 143 144 176 55 26 107 30 167 12 30
-9 50 -9 88 1 59 15 114 3 161 -36 45 -38 59 -80 59 -173 0 -126 12 -160 79
-218 66 -58 87 -106 71 -163 -13 -45 -13 -49 4 -49 26 0 86 -65 86 -94 0 -58
-56 -128 -112 -141 -20 -5 -28 -13 -30 -33 -2 -21 -11 -29 -35 -37 -24 -6 -36
-18 -43 -41 -6 -17 -38 -72 -70 -122 -47 -71 -73 -99 -120 -130 -33 -23 -69
-44 -80 -47 -24 -8 -25 -26 -4 -71 30 -62 39 -63 97 -6 68 67 105 81 245 93
254 21 400 89 466 216 24 47 36 134 25 183 -12 55 -19 67 -75 131 -92 108 -95
152 -21 271 25 40 49 90 55 110 22 80 -23 168 -125 248 -115 89 -164 143 -230
255 -83 141 -119 184 -179 217 -63 33 -108 43 -348 73 -220 28 -323 30 -408 9z"/>
<path d="M4190 5769 c-11 -7 -5 -8 20 -4 21 4 53 0 78 -8 49 -17 54 -14 12 8
-33 17 -88 20 -110 4z"/>
<path d="M4177 5680 c-14 -11 -31 -20 -38 -20 -10 0 -10 -3 -1 -12 9 -9 17 -6
37 12 33 31 77 30 112 -1 20 -18 24 -19 13 -4 -37 50 -80 59 -123 25z"/>
<path d="M4705 5682 c-37 -7 -35 -17 4 -14 23 2 52 -3 72 -13 30 -15 32 -15
19 -1 -19 19 -67 34 -95 28z"/>
<path d="M4206 5644 c-23 -22 -20 -71 3 -84 31 -16 59 -12 75 12 21 30 20 44
-4 68 -24 24 -53 26 -74 4z m59 -74 c-5 -8 -11 -8 -17 -2 -6 6 -7 16 -3 22 5
8 11 8 17 2 6 -6 7 -16 3 -22z"/>
<path d="M4679 5580 l-24 -21 33 16 c40 19 63 13 96 -26 26 -30 58 -43 34 -13
-57 70 -95 82 -139 44z"/>
<path d="M4672 5548 c-16 -16 -15 -63 1 -75 6 -6 20 -13 30 -16 15 -6 17 -3
12 13 -5 14 -2 20 9 20 9 0 16 -7 16 -16 0 -23 17 -8 24 22 12 48 -57 87 -92
52z"/>
<path d="M4267 5189 c-26 -94 28 -199 100 -199 46 0 133 112 133 172 0 19 -25
14 -48 -9 -30 -29 -146 0 -170 43 -8 14 -10 13 -15 -7z"/>
<path d="M4836 4645 c3 -13 7 -168 7 -344 2 -289 6 -357 20 -303 3 12 5 11 6
-6 0 -13 5 -21 10 -17 5 3 12 1 16 -5 3 -5 1 -10 -4 -10 -6 0 -11 -10 -11 -23
0 -23 -17 -47 -32 -47 -4 0 -8 9 -8 20 0 11 4 20 9 20 6 0 9 9 8 19 -1 14 -7
18 -22 15 -146 -32 -329 -44 -653 -44 -290 0 -395 10 -424 38 -25 25 -38 148
-45 445 -3 141 -9 257 -12 257 -5 0 -143 -57 -159 -66 -4 -2 -42 -715 -62
-1169 -6 -132 -15 -323 -21 -425 -5 -102 -13 -235 -16 -296 -4 -73 -2 -117 5
-130 11 -18 11 -18 12 -1 0 10 5 24 12 31 10 10 15 10 30 -3 27 -23 23 -43 -7
-35 -25 6 -35 -8 -15 -21 16 -10 12 -19 -15 -31 -21 -10 -24 -9 -28 10 -2 11
-7 -22 -11 -76 -10 -118 5 -175 64 -237 22 -23 42 -52 46 -66 6 -25 31 -45 99
-80 34 -17 40 -25 43 -56 3 -40 -13 -60 -53 -63 -23 -1 -24 -2 -8 -15 10 -7
32 -19 50 -27 17 -7 34 -18 38 -23 3 -6 12 -8 19 -5 7 3 20 -1 27 -8 8 -7 21
-13 29 -13 24 2 32 -6 20 -20 -7 -8 -9 -24 -5 -36 6 -17 9 -19 16 -8 5 8 9 23
9 35 0 11 8 29 19 38 17 15 20 15 34 2 8 -8 18 -12 21 -8 4 3 5 0 2 -8 -17
-54 -16 -70 2 -70 17 0 18 -5 11 -52 -11 -70 -31 -80 -111 -58 -30 9 -37 15
-35 32 1 13 -4 22 -15 23 -14 3 -17 -2 -12 -21 5 -21 3 -24 -19 -24 -31 0 -57
27 -38 40 11 6 11 9 0 15 -9 6 -7 10 9 16 15 6 22 17 22 33 0 33 18 43 35 20
16 -21 20 -8 6 15 -7 11 -20 12 -70 3 -34 -6 -69 -9 -79 -6 -13 5 -14 4 -4 -4
11 -7 10 -10 -3 -16 -23 -9 -25 -8 -25 9 0 8 -5 15 -11 15 -5 0 -8 4 -5 9 3 5
-5 16 -18 24 -23 15 -24 15 -30 -15 -3 -16 -4 -34 -1 -38 3 -4 -19 -20 -48
-34 -47 -23 -49 -26 -22 -25 17 1 42 1 58 0 l27 -1 0 -94 c0 -109 18 -177 67
-253 57 -87 139 -149 243 -181 74 -24 879 -152 952 -152 202 0 368 137 423
348 22 87 6 117 -97 177 l-48 27 -9 -24 c-10 -26 -6 -38 13 -38 8 0 12 -10 10
-26 -2 -26 -14 -47 -14 -26 0 7 -4 12 -10 12 -5 0 -7 -6 -4 -14 7 -18 -34 -16
-45 2 -10 17 -80 20 -89 5 -13 -21 -60 -26 -83 -9 -19 13 -23 26 -24 70 0 32
3 52 9 49 5 -4 7 3 4 15 -6 20 -5 20 18 5 24 -15 24 -15 24 21 0 39 -25 61
-41 35 -6 -11 -11 -11 -21 -1 -18 18 -46 14 -59 -9 -9 -17 -6 -29 12 -64 27
-51 17 -74 -29 -67 -22 3 -34 -2 -50 -23 -17 -22 -30 -27 -71 -28 -48 -2 -66
5 -38 16 7 3 5 6 -5 6 -11 1 -18 -6 -18 -18 0 -12 -8 -21 -22 -24 -22 -4 -22
-4 2 -6 19 -1 21 -4 11 -10 -16 -10 -74 6 -66 19 3 4 -5 6 -17 3 -17 -3 -19
-2 -10 5 11 7 9 10 -8 15 -12 3 -26 19 -32 35 -10 25 -14 28 -30 19 -28 -18
-40 3 -21 40 18 38 12 63 -15 63 -32 0 -45 -26 -39 -75 5 -37 4 -45 -9 -45 -8
0 -22 7 -30 15 -14 13 -17 13 -30 0 -9 -8 -26 -15 -40 -15 -13 0 -24 -4 -24
-10 0 -25 -50 -3 -54 24 -3 21 -24 36 -51 36 -11 0 -33 16 -50 35 -16 19 -35
35 -41 35 -6 0 -17 6 -23 14 -9 10 -4 22 19 51 l29 37 32 -32 c23 -22 34 -28
39 -19 5 6 15 9 25 6 13 -6 16 -2 13 20 -2 18 -9 27 -23 28 -59 5 -118 53
-128 104 -7 34 17 84 54 115 26 22 39 26 68 22 76 -10 100 -30 118 -96 10 -37
9 -49 -3 -67 -8 -12 -14 -27 -14 -33 0 -12 107 -64 153 -76 24 -5 27 -3 27 18
0 38 30 58 84 58 26 0 45 -4 42 -9 -4 -5 0 -8 6 -7 20 3 38 16 38 27 0 6 -4 8
-9 5 -5 -3 -14 1 -21 9 -7 8 -19 15 -28 15 -8 0 -12 3 -9 7 4 3 0 17 -9 30 -8
13 -16 42 -16 63 0 22 -4 37 -9 34 -5 -3 -9 -13 -9 -23 0 -24 -61 -81 -88 -81
-46 0 -130 58 -117 81 3 4 1 10 -5 14 -13 8 -13 55 1 55 5 0 7 5 4 11 -4 6 2
19 14 30 12 11 21 17 21 14 0 -3 11 2 24 10 46 31 156 -16 156 -66 0 -24 11
-24 40 1 12 11 31 22 41 25 23 7 25 25 4 25 -26 0 -121 67 -133 95 -11 23 -10
31 3 51 20 31 83 32 156 4 29 -10 56 -17 61 -14 13 8 9 24 -6 24 -17 0 -26 21
-21 46 2 11 4 36 4 56 1 27 10 47 32 72 17 20 34 35 37 35 4 -1 14 -1 22 0 13
1 13 2 0 11 -11 7 4 10 50 10 46 0 61 -3 50 -10 -12 -8 -9 -10 13 -10 16 0 26
-4 22 -10 -3 -5 1 -10 9 -10 9 0 16 -6 16 -14 0 -8 7 -16 15 -20 8 -3 15 -14
15 -25 0 -11 6 -22 13 -25 10 -5 10 -7 0 -12 -7 -3 -13 -13 -13 -22 0 -14 2
-14 9 -3 7 11 10 9 13 -10 1 -13 13 -28 24 -34 12 -6 28 -16 35 -22 8 -5 26
-13 40 -17 28 -6 45 -31 29 -41 -6 -4 -10 -1 -10 4 0 6 -4 11 -10 11 -5 0 -10
-6 -10 -14 0 -8 -7 -22 -15 -30 -14 -14 -13 -18 10 -38 35 -30 36 -98 0 -133
-35 -36 -97 -35 -130 1 -27 29 -34 91 -14 111 8 8 7 17 -3 33 -23 40 -45 59
-56 48 -12 -12 -82 -17 -82 -6 0 5 -6 8 -14 8 -17 0 -29 -27 -16 -35 6 -4 10
-19 10 -35 0 -23 -5 -31 -25 -36 -25 -6 -25 -7 -8 -26 10 -11 25 -17 36 -14
31 8 74 -14 87 -43 14 -35 4 -78 -21 -92 -11 -5 -17 -15 -13 -20 4 -7 10 -7
17 0 13 13 211 15 203 2 -4 -5 3 -7 14 -4 11 3 20 0 20 -6 0 -6 7 -11 16 -11
10 0 14 -6 10 -15 -3 -10 1 -15 12 -15 13 0 14 -2 3 -9 -7 -5 -10 -14 -7 -20
4 -6 12 -8 18 -5 7 5 9 1 5 -9 -6 -15 4 -16 91 -11 53 3 98 6 99 8 2 2 -5 70
-17 152 -11 82 -27 208 -37 281 -9 73 -20 130 -24 127 -5 -3 -6 8 -3 23 3 15
-2 82 -10 148 -63 492 -68 567 -86 1525 -6 294 -13 545 -15 556 -5 21 -48 38
-162 64 -31 7 -32 6 -27 -15z m181 -67 c-3 -8 -6 -5 -6 6 -1 11 2 17 5 13 3
-3 4 -12 1 -19z m-23 -504 c15 -6 15 -8 -1 -20 -25 -19 -33 -17 -33 6 0 21 8
24 34 14z m-54 -43 c0 -5 -7 -11 -15 -15 -9 -3 -15 0 -15 9 0 8 7 15 15 15 8
0 15 -4 15 -9z m-130 -106 c0 -10 -9 -15 -27 -14 -24 2 -25 2 -5 6 12 2 22 9
22 14 0 5 2 9 5 9 3 0 5 -7 5 -15z m8 -37 c-3 -7 -13 -15 -23 -16 -10 -2 -15
0 -11 6 3 6 0 13 -6 15 -7 3 0 6 15 6 19 1 27 -3 25 -11z m-950 -18 c16 -1 15
-2 0 -14 -10 -7 -18 -18 -18 -25 0 -14 -17 -15 -25 -1 -7 12 -26 14 -22 2 1
-4 -8 -18 -20 -32 -19 -19 -23 -21 -23 -7 0 9 5 17 11 17 6 0 9 6 6 13 -6 17
42 59 60 53 8 -3 22 -6 31 -6z m897 0 c-4 -6 -1 -18 6 -26 10 -12 9 -16 -10
-21 -13 -3 -20 -11 -17 -19 8 -20 -10 -26 -34 -12 -24 15 -26 31 -5 48 12 10
15 9 15 -4 0 -10 5 -14 11 -11 6 4 8 14 5 22 -8 19 1 33 20 33 8 0 12 -5 9
-10z m-71 -92 c5 -9 7 -20 3 -24 -8 -8 -47 24 -47 38 0 15 32 5 44 -14z m-942
-40 c-12 -12 -52 11 -52 29 0 20 23 20 43 0 12 -12 16 -22 9 -29z m-46 -3 c4
-8 13 -15 22 -15 13 0 12 -3 -3 -20 -22 -24 -35 -26 -35 -3 0 14 -3 14 -12 5
-10 -10 -10 -15 2 -22 13 -9 13 -11 0 -20 -21 -14 -28 -12 -40 9 -14 27 -13
30 15 41 14 5 25 16 25 25 0 19 19 20 26 0z m-58 -98 c15 -3 14 -5 -3 -12 -11
-4 -27 -17 -36 -28 -13 -16 -19 -17 -38 -8 -25 14 -20 28 16 42 14 5 21 14 17
20 -3 6 0 15 7 20 10 6 15 3 17 -11 2 -10 11 -21 20 -23z m-88 -62 c7 -9 10
-19 6 -22 -8 -9 -38 9 -44 25 -5 17 23 15 38 -3z m763 -167 c8 -25 -4 -46 -24
-41 -13 4 -19 0 -19 -11 0 -10 -6 -13 -15 -10 -21 8 -19 17 10 48 26 28 41 33
48 14z m-115 -100 c14 -14 16 -48 2 -48 -18 0 -48 33 -43 46 6 17 25 18 41 2z
m32 2 c0 -5 -2 -10 -4 -10 -3 0 -8 5 -11 10 -3 6 -1 10 4 10 6 0 11 -4 11 -10z
m-66 -72 c-3 -4 -11 -5 -19 -1 -16 5 -20 25 -8 36 7 8 33 -25 27 -35z m-50
-14 c4 -9 13 -14 21 -10 17 6 19 -2 5 -24 -7 -12 -12 -12 -22 -2 -18 18 -31
14 -25 -9 4 -15 -1 -22 -19 -30 -14 -5 -22 -13 -19 -19 9 -14 -7 -12 -27 4
-20 15 -23 26 -7 26 6 0 24 13 40 29 16 16 29 34 29 40 0 17 17 13 24 -5z
m-94 -131 c0 -19 -18 -16 -28 5 -14 27 -3 47 14 25 7 -10 14 -24 14 -30z m753
-181 c-3 -11 -16 -23 -30 -27 -29 -7 -44 1 -19 11 9 3 16 10 16 14 0 5 5 21
11 37 11 27 11 27 19 6 5 -11 6 -30 3 -41z m-93 -37 c-7 -9 -15 -13 -17 -11
-6 6 20 36 26 30 2 -2 -2 -10 -9 -19z m0 -60 c0 -8 -4 -15 -10 -15 -5 0 -10 7
-10 15 0 8 5 15 10 15 6 0 10 -7 10 -15z m-39 -48 c-13 -13 -26 -3 -16 12 3 6
11 8 17 5 6 -4 6 -10 -1 -17z m-1000 -56 c-6 -11 -24 -22 -41 -26 -21 -5 -32
-14 -36 -31 -7 -26 -24 -33 -24 -9 0 8 -4 15 -10 15 -5 0 -10 -6 -10 -14 0 -8
5 -18 10 -21 17 -11 11 -24 -10 -22 -11 1 -20 7 -20 14 0 21 23 63 34 63 16 1
56 36 56 50 0 7 7 10 15 6 9 -3 15 0 15 10 0 14 2 14 15 0 12 -12 13 -20 6
-35z m962 29 c5 -21 -8 -26 -32 -11 -7 5 -10 14 -7 20 11 18 33 13 39 -9z
m-38 -50 c-5 -8 -11 -6 -20 7 -17 23 -7 39 12 20 9 -8 12 -20 8 -27z m-25 0
c0 -3 -6 -14 -13 -24 -13 -17 -14 -17 -30 -1 -25 24 -21 34 13 33 17 -1 30 -4
30 -8z m-52 -66 c-2 -25 -18 -34 -18 -10 0 8 -5 16 -12 18 -7 3 -9 12 -5 22
10 26 37 2 35 -30z m-43 -94 c30 -28 43 -98 25 -140 -20 -47 -55 -70 -111 -70
-119 0 -168 138 -76 216 27 23 38 26 84 22 38 -3 60 -11 78 -28z m615 -68 c37
-19 63 -82 47 -116 -7 -14 -22 -28 -34 -31 -28 -7 -30 -23 -3 -33 26 -10 11
-33 -18 -25 -12 3 -19 9 -16 14 3 5 0 9 -5 9 -6 0 -11 4 -11 10 0 15 -33 50
-47 50 -7 0 -13 8 -13 18 0 10 -6 24 -12 30 -10 10 -10 14 0 21 7 4 15 16 16
26 2 15 52 47 66 41 3 -1 16 -7 30 -14z m60 -151 c0 -12 -20 -25 -27 -18 -7 7
6 27 18 27 5 0 9 -4 9 -9z m-999 -41 c12 0 17 -4 14 -11 -4 -6 -13 -8 -21 -5
-9 4 -14 -2 -14 -15 0 -13 -5 -19 -13 -16 -7 3 -24 -1 -38 -9 -13 -7 -20 -13
-16 -14 15 0 -14 -40 -31 -41 -10 0 -12 -3 -4 -6 17 -7 15 -30 -4 -37 -8 -3
-12 -2 -9 4 4 6 -1 17 -9 26 -20 19 -20 28 -1 44 8 7 15 10 15 7 0 -3 24 17
52 44 29 27 54 45 56 39 2 -5 13 -10 23 -10z m909 -20 c17 -17 18 -21 6 -26
-19 -7 -56 13 -56 31 0 21 27 18 50 -5z m-1069 -128 c-9 -3 -9 -7 0 -18 12
-15 2 -19 -18 -6 -7 4 -10 17 -6 30 4 19 8 20 20 10 10 -8 12 -13 4 -16z m-36
-38 l17 -27 -31 6 c-35 7 -37 5 -16 -16 13 -14 12 -17 -14 -28 -21 -10 -27
-18 -23 -33 5 -19 3 -19 -17 3 -23 26 -27 46 -11 56 6 3 10 -1 10 -10 0 -9 5
-13 11 -10 6 4 8 14 4 23 -4 10 4 24 21 39 15 13 28 23 29 23 2 0 11 -12 20
-26z m-109 -111 c25 -33 13 -44 -21 -20 -10 8 -15 19 -11 25 10 16 17 15 32
-5z m-171 -43 c4 -6 11 -8 16 -5 5 4 9 1 9 -4 0 -15 -13 -14 -36 4 -10 8 -14
15 -7 15 6 0 15 -5 18 -10z m802 -106 c-3 -3 -12 -4 -19 -1 -8 3 -5 6 6 6 11
1 17 -2 13 -5z"/>
<path d="M2477 3923 c-4 -3 -7 -15 -7 -25 0 -16 -9 -18 -76 -18 -49 0 -74 -4
-72 -11 2 -6 7 -10 11 -10 4 1 81 1 172 1 103 0 165 4 165 10 0 6 -30 10 -70
10 -62 0 -70 2 -70 19 0 24 -37 41 -53 24z"/>
<path d="M1675 3850 l7 -30 -161 0 c-115 0 -161 -3 -161 -12 0 -8 27 -9 98 -5
53 4 200 7 326 7 126 0 227 3 223 6 -3 3 -73 5 -156 5 l-151 -2 6 31 c6 26 4
30 -16 30 -19 0 -21 -4 -15 -30z"/>
<path d="M2180 3810 c0 -18 -7 -20 -55 -20 -30 0 -55 -3 -55 -7 0 -5 24 -7 52
-6 29 1 90 2 136 2 47 1 82 5 82 11 0 6 -24 10 -54 10 -39 0 -55 4 -60 15 -8
23 -46 19 -46 -5z"/>
<path d="M1970 3760 c0 -5 16 -10 35 -10 19 0 35 5 35 10 0 6 -16 10 -35 10
-19 0 -35 -4 -35 -10z"/>
<path d="M1330 3750 c0 -5 16 -10 35 -10 19 0 35 5 35 10 0 6 -16 10 -35 10
-19 0 -35 -4 -35 -10z"/>
<path d="M2097 3509 c4 -13 8 -18 11 -10 2 7 -1 18 -6 23 -8 8 -9 4 -5 -13z"/>
<path d="M2327 3489 c7 -7 15 -10 18 -7 3 3 -2 9 -12 12 -14 6 -15 5 -6 -5z"/>
<path d="M2418 3493 c7 -3 16 -2 19 1 4 3 -2 6 -13 5 -11 0 -14 -3 -6 -6z"/>
<path d="M1508 3483 c105 -2 279 -2 385 0 105 1 19 2 -193 2 -212 0 -298 -1
-192 -2z"/>
<path d="M1171 3464 c0 -11 3 -14 6 -6 3 7 2 16 -1 19 -3 4 -6 -2 -5 -13z"/>
<path d="M1088 3463 c6 -2 10 -9 6 -14 -3 -5 2 -9 11 -9 9 0 14 4 11 9 -4 5 0
12 6 14 7 3 0 5 -17 5 -16 0 -24 -2 -17 -5z"/>
<path d="M1153 3442 c0 -12 5 -22 9 -22 11 0 10 12 -2 30 -7 12 -9 10 -7 -8z"/>
<path d="M1335 3450 c21 -4 41 -13 43 -19 2 -7 28 -10 70 -9 56 1 59 2 20 5
-28 3 -48 9 -48 16 0 8 -3 7 -9 -2 -7 -11 -13 -11 -32 3 -13 9 -37 15 -54 15
-27 -1 -26 -2 10 -9z"/>
<path d="M1845 3441 c69 -6 54 -8 -100 -11 -99 -2 -148 -5 -110 -7 39 -2 239
1 445 5 341 8 354 9 149 10 -124 1 -279 4 -345 6 -94 3 -102 2 -39 -3z"/>
<path d="M1070 3430 l-55 -7 63 -1 c36 -1 62 2 62 8 0 6 -3 9 -7 8 -5 -1 -33
-4 -63 -8z"/>
<path d="M1180 3423 c1 -31 35 -99 44 -85 4 7 2 12 -3 12 -6 0 -11 5 -11 10 0
7 6 7 20 0 12 -6 26 -33 35 -65 l16 -55 45 0 45 0 -2 93 -1 92 -90 -3 c-62 -2
-88 0 -83 7 3 6 1 11 -4 11 -6 0 -11 -8 -11 -17z"/>
<path d="M1221 3304 c0 -11 3 -14 6 -6 3 7 2 16 -1 19 -3 4 -6 -2 -5 -13z"/>
<path d="M6238 2549 c-9 -5 -43 -15 -75 -22 -47 -11 -59 -18 -61 -35 -3 -21 0
-22 85 -22 l89 0 -4 40 c-5 45 -10 52 -34 39z"/>
<path d="M4808 2333 c7 -3 16 -2 19 1 4 3 -2 6 -13 5 -11 0 -14 -3 -6 -6z"/>
<path d="M4815 2211 c-3 -5 -1 -12 5 -16 5 -3 10 1 10 9 0 18 -6 21 -15 7z"/>
<path d="M2940 2068 c0 -10 51 -36 118 -59 30 -10 57 -19 59 -19 1 0 3 15 3
34 0 33 -2 35 -42 41 -76 10 -138 11 -138 3z"/>
<path d="M3536 1915 c10 -8 23 -15 28 -15 6 0 1 7 -10 15 -10 8 -23 15 -28 15
-6 0 -1 -7 10 -15z"/>
<path d="M2646 1900 c-66 -21 -95 -81 -61 -126 8 -10 15 -33 15 -50 l0 -31 73
-6 c39 -3 95 -2 122 1 44 6 50 10 53 32 2 14 10 40 19 59 19 42 10 75 -29 104
-30 22 -144 33 -192 17z"/>
<path d="M3600 1876 c0 -2 8 -10 18 -17 15 -13 16 -12 3 4 -13 16 -21 21 -21
13z"/>
<path d="M5990 1636 l0 -216 78 -1 c161 -2 308 3 325 13 17 8 18 24 14 203 -2
107 -7 198 -11 202 -4 5 -97 9 -207 11 l-199 3 0 -215z"/>
<path d="M5011 1714 c0 -11 3 -14 6 -6 3 7 2 16 -1 19 -3 4 -6 -2 -5 -13z"/>
<path d="M2311 1690 c-61 -13 -71 -25 -71 -81 l0 -48 53 -6 c58 -7 282 -3 291
5 2 3 6 29 9 59 3 48 1 54 -21 62 -35 13 -211 19 -261 9z"/>
<path d="M4093 1669 c-15 -39 -9 -49 14 -26 12 12 14 22 7 37 -9 20 -10 19
-21 -11z"/>
<path d="M4475 1680 c3 -5 8 -10 11 -10 2 0 4 5 4 10 0 6 -5 10 -11 10 -5 0
-7 -4 -4 -10z"/>
<path d="M4207 1673 c-13 -12 -7 -38 12 -50 19 -12 31 -8 31 10 0 5 -7 7 -15
3 -9 -3 -15 0 -15 9 0 8 7 15 16 15 8 0 12 5 9 10 -7 11 -28 13 -38 3z"/>
<path d="M4166 1632 c-2 -4 -1 -14 5 -22 7 -12 9 -10 9 8 0 23 -5 28 -14 14z"/>
<path d="M2719 1622 l-87 -3 -5 -42 c-2 -23 -4 -93 -3 -156 1 -97 4 -115 20
-126 28 -21 89 -28 135 -15 l41 11 0 164 c0 90 -3 165 -7 167 -5 2 -47 2 -94
0z"/>
<path d="M4995 1620 c-3 -5 -2 -10 4 -10 5 0 13 5 16 10 3 6 2 10 -4 10 -5 0
-13 -4 -16 -10z"/>
<path d="M4462 1580 c14 -22 24 -19 15 5 -4 8 -11 15 -17 15 -6 0 -6 -7 2 -20z"/>
<path d="M4250 1579 c0 -4 7 -9 15 -13 9 -3 15 0 15 8 0 7 -7 13 -15 13 -8 0
-15 -4 -15 -8z"/>
<path d="M2272 1409 c2 -82 6 -103 21 -114 41 -29 249 -27 280 4 6 6 13 56 15
111 l4 100 -162 0 -162 0 4 -101z"/>
</g>
</svg>
